<?xml version="1.0" encoding="UTF-8"?>
<svg xmlns="http://www.w3.org/2000/svg" xmlns:xlink="http://www.w3.org/1999/xlink" width="90px" height="90px" viewBox="0 0 90 90" version="1.1">
  <defs>
    <linearGradient id="linear0" gradientUnits="userSpaceOnUse" x1="0.98031" y1="0.00161" x2="0.58888" y2="0.40766" gradientTransform="matrix(42.050781,0,0,41.808594,23.980469,28.921875)">
      <stop offset="0.18" style="stop-color:rgb(0%,32.156863%,80%);stop-opacity:1;"></stop>
      <stop offset="1" style="stop-color:rgb(14.901961%,51.764706%,100%);stop-opacity:1;"></stop>
    </linearGradient>
    <linearGradient id="linear1" gradientUnits="userSpaceOnUse" x1="1.00665" y1="0.00455" x2="0.55402" y2="0.44727" gradientTransform="matrix(42.054688,0,0,41.808594,4.820313,48.191406)">
      <stop offset="0.18" style="stop-color:rgb(0%,32.156863%,80%);stop-opacity:1;"></stop>
      <stop offset="1" style="stop-color:rgb(14.901961%,51.764706%,100%);stop-opacity:1;"></stop>
    </linearGradient>
  </defs>
  <g id="surface1">
    <path style=" stroke:none;fill-rule:nonzero;fill:rgb(14.901961%,51.764709%,100%);fill-opacity:1;" d="M 81.824219 9.640625 L 43.125 9.640625 C 43.125 19.289062 50.945312 27.109375 60.59375 27.109375 L 67.722656 27.109375 L 67.722656 33.992188 C 67.730469 43.628906 75.539062 51.441406 85.179688 51.449219 L 85.179688 12.996094 C 85.179688 11.144531 83.675781 9.640625 81.824219 9.640625 Z M 81.824219 9.640625 "></path>
    <path style=" stroke:none;fill-rule:nonzero;fill:url(#linear0);" d="M 62.675781 28.921875 L 23.980469 28.921875 C 23.984375 38.5625 31.796875 46.375 41.4375 46.378906 L 48.5625 46.378906 L 48.5625 53.285156 C 48.578125 62.921875 56.394531 70.730469 66.03125 70.730469 L 66.03125 32.28125 C 66.03125 30.425781 64.53125 28.921875 62.675781 28.921875 Z M 62.675781 28.921875 "></path>
    <path style=" stroke:none;fill-rule:nonzero;fill:url(#linear1);" d="M 43.515625 48.191406 L 4.820312 48.191406 C 4.820312 57.839844 12.640625 65.660156 22.289062 65.660156 L 29.441406 65.660156 L 29.441406 72.542969 C 29.445312 82.171875 37.246094 89.980469 46.875 90 L 46.875 51.550781 C 46.875 49.695312 45.371094 48.191406 43.515625 48.191406 Z M 43.515625 48.191406 "></path>
  </g>
</svg>
